<svg xmlns="http://www.w3.org/2000/svg" width="16.537" height="30.8" viewBox="0 0 16.537 30.8">
  <g id="Grupo_832" data-name="Grupo 832" transform="translate(0.025 0.002)">
    <path id="Trazado_329" data-name="Trazado 329" d="M8.6,104.658l-.637-.037c-.006.155-.019.284-.019.414q0,5.074-.006,10.143a2.739,2.739,0,0,1-.062.674,1.435,1.435,0,0,1-2.82-.266c-.006-.136-.006-.266-.006-.4,0-4.873-.018-8.888-.018-13.761v-.371c-.785.34-1.02.3-1.627-.322-1-1.014-2-2.029-2.993-3.043A1,1,0,0,1,.4,96.043c1.268-1.268,2.542-2.529,3.8-3.81A1.352,1.352,0,0,1,5.221,91.8c2.029.006,4.063.006,6.092,0a1.243,1.243,0,0,1,.934.4q1.93,1.939,3.865,3.871a.988.988,0,0,1,.006,1.583q-1.558,1.586-3.123,3.173a1.059,1.059,0,0,1-1.534.2v.371c-.006,4.917.012,8.974.006,13.885a1.472,1.472,0,0,1-1.119,1.6,1.412,1.412,0,0,1-1.725-1.169,3.693,3.693,0,0,1-.031-.526V105.073C8.6,104.949,8.6,104.813,8.6,104.658Zm2.895-10.49v5.387c.037-.012.062-.012.074-.025Q12.8,98.3,14.034,97.069c.161-.161.087-.26-.037-.383-.513-.507-1.02-1.014-1.528-1.528C12.154,94.849,11.851,94.534,11.492,94.169ZM5,99.611V94.237c-.043.019-.062.019-.074.031Q3.7,95.5,2.463,96.729c-.142.142-.093.241.025.359.5.489.99.989,1.484,1.484C4.306,98.906,4.633,99.234,5,99.611Z" transform="translate(0 -86.124)" fill="#51bc93"/>
    <path id="Trazado_330" data-name="Trazado 330" d="M90.371,2.484a2.669,2.669,0,1,1,5.325.383,2.691,2.691,0,0,1-2.8,2.406A2.658,2.658,0,0,1,90.371,2.484Z" transform="translate(-84.798)" fill="#51bc93"/>
  </g>
</svg>
