<svg xmlns="http://www.w3.org/2000/svg" width="25.813" height="25.813" viewBox="0 0 25.813 25.813">
  <g id="Grupo_835" data-name="Grupo 835" transform="translate(0 0)">
    <path id="Trazado_335" data-name="Trazado 335" d="M220.374,114.605c-.1.963-.2,1.931-.3,2.894-.121,1.144-.247,2.284-.363,3.428a.529.529,0,0,0,.076.282,1.8,1.8,0,0,1-2.249,2.521,1.807,1.807,0,0,1-.308-3.217,1.058,1.058,0,0,0,.343-.373c.892-1.765,1.77-3.539,2.652-5.309.04-.081.086-.156.126-.232A.055.055,0,0,1,220.374,114.605Z" transform="translate(-205.471 -108.822)" fill="#51bc93"/>
    <path id="Trazado_336" data-name="Trazado 336" d="M12.9,0A12.907,12.907,0,1,0,25.813,12.9,12.928,12.928,0,0,0,12.9,0Zm2.7,12.907a2.924,2.924,0,1,1-5.788.005H2.944A9.675,9.675,0,0,1,7.376,4.674a9.482,9.482,0,0,1,11.016-.03,9.692,9.692,0,0,1,4.482,8.263Z" transform="translate(0 0)" fill="#51bc93"/>
    <path id="Trazado_337" data-name="Trazado 337" d="M260.7,412.67c0,.328.227.464.524.464a.97.97,0,0,0,.812-.509v-.4a1.33,1.33,0,0,0-.539-.121C261.038,412.1,260.7,412.3,260.7,412.67Z" transform="translate(-247.556 -391.323)" fill="#51bc93"/>
  </g>
</svg>
