<svg xmlns="http://www.w3.org/2000/svg" width="27.615" height="27.615" viewBox="0 0 27.615 27.615">
  <path id="Trazado_331" data-name="Trazado 331" d="M27.615,13.837v10.7a2.963,2.963,0,0,1-2.594,3.047,3.229,3.229,0,0,1-.512.027H3.106A2.986,2.986,0,0,1,0,24.5V3.1A2.977,2.977,0,0,1,3.106,0h21.4a2.974,2.974,0,0,1,3.1,3.106Q27.617,8.469,27.615,13.837ZM13.772,24.444h7.307a3.74,3.74,0,0,0,.7-.043,2.977,2.977,0,0,0,2.486-3.036q.008-5.136,0-10.273a2.976,2.976,0,0,0-3.122-3.117H6.417a3.325,3.325,0,0,0-.566.032A2.962,2.962,0,0,0,3.3,11.044Q3.292,16.2,3.3,21.37a3.607,3.607,0,0,0,.07.723,2.955,2.955,0,0,0,3.009,2.351C8.844,24.449,11.308,24.444,13.772,24.444ZM19.779,3.117a10.364,10.364,0,0,0-11.95.054c.777,1.052,1.553,2.1,2.34,3.171a7.287,7.287,0,0,1,2.971-1.078c-.426-.868-.836-1.688-1.246-2.524.146-.081.259-.14.383-.21.065.1.119.183.167.264.437.744.879,1.483,1.31,2.227a.411.411,0,0,0,.356.216,10.38,10.38,0,0,1,1.736.324,17.231,17.231,0,0,1,1.763.777C18.318,5.285,19.051,4.2,19.779,3.117Z" fill="#51bc93"/>
</svg>
