<?xml version="1.0" encoding="utf-8"?>
<!-- Generator: Adobe Illustrator 22.0.0, SVG Export Plug-In . SVG Version: 6.00 Build 0)  -->
<svg version="1.1" id="Capa_1" xmlns="http://www.w3.org/2000/svg" xmlns:xlink="http://www.w3.org/1999/xlink" x="0px" y="0px"
	 viewBox="0 0 265.8 139.1" style="enable-background:new 0 0 265.8 139.1;" xml:space="preserve">
<style type="text/css">
	.st0{fill:#51BC93;}
	.st1{fill:#E7EEEB;}
	.st2{fill:#FFFFFF;}
	.st3{fill:#4CDF51;}
	.st4{fill:#F15D46;}
</style>
<g id="Grupo_808" transform="translate(-0.03)">
	<g id="Grupo_803" transform="translate(0.03)">
		<path id="Trazado_277" class="st0" d="M208.6,133.8c-0.3,0-0.6-0.1-0.9-0.2c-46.3-26.9-103.5-26.9-149.8,0
			c-0.4,0.3-0.9,0.3-1.3,0.2c-0.5-0.1-0.8-0.4-1.1-0.8L0.9,39.1c-0.8-1.3-1.4-2.4-0.2-3.3c0.1,0,0.1-0.1,0.2-0.1
			C41,12.2,86.6-0.1,133,0c46.3-0.1,91.8,12.2,131.9,35.5c0.8,0.5,1.1,1.6,0.6,2.4c0,0,0,0,0,0l-55.4,95c-0.2,0.4-0.6,0.7-1.1,0.8
			C209,133.8,208.8,133.8,208.6,133.8z"/>
	</g>
	<path id="Trazado_278_2_" class="st1" d="M136,116.4l-2.3-31.3c0-0.6-1.8-0.6-1.8,0l-2.2,31.3H136z"/>
	<g id="Grupo_805" transform="translate(55.677 93.603)">
		<g id="Grupo_804">
			<path id="Trazado_279" class="st2" d="M70.6,18.5c-0.2,0-0.4-0.2-0.4-0.4L69.6,2.3c0-0.2,0.2-0.3,0.4-0.3c0.2,0,0.3,0.2,0.3,0.3
				L71,18.1C71,18.3,70.8,18.5,70.6,18.5L70.6,18.5z"/>
			<path id="Trazado_280" class="st2" d="M64.1,18.9c-0.2,0-0.3-0.1-0.4-0.3L62.4,2.8c0-0.2,0.1-0.4,0.3-0.4c0.2,0,0.4,0.1,0.4,0.3
				l1.4,15.8C64.4,18.7,64.3,18.9,64.1,18.9C64.1,18.9,64.1,18.9,64.1,18.9L64.1,18.9z"/>
			<path id="Trazado_281" class="st2" d="M57.6,19.6c-0.2,0-0.3-0.1-0.4-0.3L55.1,3.6c0-0.2,0.1-0.4,0.3-0.4c0,0,0,0,0,0
				c0.2,0,0.3,0.1,0.4,0.2c0,0,0,0.1,0,0.1l2,15.7C57.9,19.4,57.8,19.6,57.6,19.6C57.6,19.6,57.6,19.6,57.6,19.6L57.6,19.6z"/>
			<path id="Trazado_282" class="st2" d="M51,20.6c-0.2,0-0.3-0.1-0.4-0.3L47.9,4.7c0-0.2,0.1-0.4,0.3-0.4s0.4,0.1,0.4,0.3
				c0,0,0,0,0,0l2.8,15.6C51.4,20.4,51.3,20.6,51,20.6L51,20.6z"/>
			<path id="Trazado_283" class="st2" d="M44.6,21.9c-0.2,0-0.3-0.1-0.4-0.3L39.5,0.4c0-0.2,0.1-0.4,0.3-0.4c0.2,0,0.4,0.1,0.4,0.3
				L45,21.5C45,21.7,44.9,21.9,44.6,21.9C44.7,21.9,44.7,21.9,44.6,21.9L44.6,21.9z"/>
			<path id="Trazado_284" class="st2" d="M38.2,23.5c-0.2,0-0.3-0.1-0.4-0.2L33.8,7.9c0-0.2,0.1-0.4,0.2-0.4c0.2,0,0.4,0.1,0.4,0.2
				L38.6,23C38.6,23.2,38.5,23.4,38.2,23.5L38.2,23.5z"/>
			<path id="Trazado_285" class="st2" d="M31.9,25.3c-0.2,0-0.3-0.1-0.4-0.2L26.8,9.9c-0.1-0.2,0.1-0.4,0.2-0.5
				c0.2-0.1,0.4,0.1,0.5,0.2l4.8,15.1c0.1,0.2,0,0.4-0.2,0.5c0,0,0,0,0,0C32,25.3,32,25.3,31.9,25.3z"/>
			<path id="Trazado_286" class="st2" d="M25.7,27.4c-0.1,0-0.3-0.1-0.3-0.2l-5.4-14.9c-0.1-0.2,0-0.4,0.2-0.5
				c0.2-0.1,0.4,0,0.5,0.2l0,0L26,26.9c0.1,0.2,0,0.4-0.2,0.5C25.8,27.4,25.8,27.4,25.7,27.4z"/>
			<path id="Trazado_287" class="st2" d="M19.6,29.8c-0.1,0-0.3-0.1-0.3-0.2l-6.1-14.7c-0.1-0.2,0-0.4,0.2-0.5
				c0.2-0.1,0.4,0,0.5,0.2l6.1,14.7c0.1,0.2,0,0.4-0.2,0.5C19.7,29.8,19.6,29.8,19.6,29.8z"/>
			<path id="Trazado_288" class="st2" d="M13.6,32.4c-0.1,0-0.3-0.1-0.3-0.2L3.5,11.8c-0.1-0.2,0-0.4,0.2-0.5c0.2-0.1,0.4,0,0.5,0.2
				l9.7,20.5c0.1,0.2,0,0.4-0.2,0.5C13.7,32.4,13.6,32.4,13.6,32.4z"/>
			<path id="Trazado_289" class="st2" d="M7.7,35.3c-0.1,0-0.2-0.1-0.3-0.2L0,21.1c-0.1-0.2,0-0.4,0.1-0.5s0.4,0,0.5,0.1l0,0L8,34.8
				C8.1,35,8,35.2,7.9,35.3c0,0,0,0-0.1,0C7.8,35.3,7.7,35.3,7.7,35.3z"/>
			<path id="Trazado_290" class="st2" d="M83.9,18.5L83.9,18.5c-0.2,0-0.4-0.2-0.4-0.4l0.7-15.9c0-0.2,0.2-0.3,0.4-0.3
				c0.2,0,0.3,0.2,0.3,0.3l-0.7,15.9C84.3,18.3,84.1,18.5,83.9,18.5C83.9,18.5,83.9,18.5,83.9,18.5z"/>
			<path id="Trazado_291" class="st2" d="M90.5,18.9L90.5,18.9c-0.2,0-0.4-0.2-0.4-0.4l1.4-15.8c0-0.2,0.2-0.3,0.4-0.3
				s0.3,0.2,0.3,0.4l-1.4,15.8C90.8,18.8,90.6,18.9,90.5,18.9C90.5,18.9,90.5,18.9,90.5,18.9z"/>
			<path id="Trazado_292" class="st2" d="M97,19.6L97,19.6c-0.2,0-0.3-0.2-0.4-0.4l2.1-15.7c0-0.2,0.2-0.3,0.4-0.3s0.3,0.2,0.3,0.4
				l0,0l-2.1,15.7C97.3,19.5,97.2,19.6,97,19.6z"/>
			<path id="Trazado_293" class="st2" d="M103.5,20.6L103.5,20.6c-0.3,0-0.4-0.2-0.4-0.4l2.8-15.6c0-0.2,0.2-0.3,0.4-0.3
				s0.3,0.2,0.3,0.4c0,0,0,0,0,0l-2.8,15.6C103.8,20.5,103.7,20.6,103.5,20.6z"/>
			<path id="Trazado_294" class="st2" d="M109.9,21.9L109.9,21.9c-0.3-0.1-0.4-0.2-0.4-0.4l4.8-21.2c0-0.2,0.2-0.3,0.4-0.3
				s0.3,0.2,0.3,0.4c0,0,0,0,0,0l-4.8,21.2C110.2,21.8,110.1,21.9,109.9,21.9z"/>
			<path id="Trazado_295" class="st2" d="M116.3,23.5h-0.1c-0.2,0-0.3-0.2-0.3-0.4c0,0,0,0,0,0L120,7.7c0-0.2,0.2-0.3,0.4-0.2
				s0.3,0.2,0.2,0.4l0,0l-4.1,15.3C116.6,23.4,116.5,23.5,116.3,23.5z"/>
			<path id="Trazado_296" class="st2" d="M122.6,25.3h-0.1c-0.2-0.1-0.3-0.3-0.2-0.5L127,9.7c0.1-0.2,0.3-0.3,0.5-0.2
				s0.3,0.3,0.2,0.5l0,0L123,25.1C122.9,25.2,122.8,25.3,122.6,25.3z"/>
			<path id="Trazado_297" class="st2" d="M128.8,27.4c0,0-0.1,0-0.1,0c-0.2-0.1-0.3-0.3-0.2-0.5L134,12c0.1-0.2,0.3-0.3,0.5-0.2
				s0.3,0.3,0.2,0.5l-5.4,14.9C129.1,27.3,129,27.4,128.8,27.4z"/>
			<path id="Trazado_298" class="st2" d="M134.9,29.8c0,0-0.1,0-0.1,0c-0.2-0.1-0.3-0.2-0.2-0.4c0,0,0,0,0,0l6.1-14.7
				c0.1-0.2,0.3-0.3,0.5-0.2c0.2,0.1,0.3,0.3,0.2,0.5l0,0l-6.1,14.7C135.2,29.7,135.1,29.8,134.9,29.8z"/>
			<path id="Trazado_299" class="st2" d="M141,32.4c0,0-0.1,0-0.1,0c-0.2-0.1-0.3-0.3-0.2-0.5l9.7-20.5c0.1-0.2,0.3-0.3,0.5-0.2
				c0.2,0.1,0.3,0.3,0.2,0.5l-9.7,20.5C141.2,32.4,141.1,32.4,141,32.4z"/>
			<path id="Trazado_300" class="st2" d="M146.9,35.3c-0.1,0-0.1,0-0.2,0c-0.2-0.1-0.2-0.3-0.2-0.4c0,0,0,0,0,0l7.3-14.1
				c0.1-0.2,0.3-0.2,0.5-0.1c0.2,0.1,0.2,0.3,0.1,0.5l-7.3,14.1C147.1,35.3,147,35.4,146.9,35.3z"/>
		</g>
	</g>
	<g id="Grupo_806" transform="translate(58.794 115.434)">
		<path id="Trazado_302" class="st3" d="M44.5,6.7c0,0.1,0,0.2-0.1,0.2c-14.7,3.1-29,8.4-42.3,16.2c-0.1,0-0.2,0-0.2-0.1L0,20
			c0,0,0-0.1,0-0.1c0,0,0-0.1,0.1-0.1C13.8,11.8,28.5,6.2,43.6,3.1c0.1,0,0.2,0,0.2,0.2L44.5,6.7z"/>
	</g>
	<g id="Grupo_807" transform="translate(102.937 115.469)">
		<path id="Trazado_304" class="st4" d="M101.9,23.6L101.9,23.6c0,0-0.1,0-0.1,0l0,0C71.4,5.7,35.5-0.3,0.9,6.7c0,0-0.1,0-0.1,0l0,0
			c0,0,0,0,0-0.1l0,0L0,3.1C0,3.1,0,3,0,3c0,0,0.1-0.1,0.1-0.1C9.8,1,19.6,0,29.4,0c26.1,0,51.8,7,74.4,20.2
			c0.1,0.1,0.1,0.2,0.1,0.2l-1.8,3.1c0,0,0,0,0,0l0,0l0,0C102,23.6,102,23.6,101.9,23.6L101.9,23.6z"/>
	</g>
</g>
</svg>
