<?xml version="1.0" encoding="utf-8"?>
<!-- Generator: Adobe Illustrator 22.0.0, SVG Export Plug-In . SVG Version: 6.00 Build 0)  -->
<svg version="1.1" id="Capa_1" xmlns="http://www.w3.org/2000/svg" xmlns:xlink="http://www.w3.org/1999/xlink" x="0px" y="0px"
	 viewBox="0 0 9.7 9.7" style="enable-background:new 0 0 9.7 9.7;" xml:space="preserve">
<style type="text/css">
	.st0{fill:#f1e046;}
	.st1{fill:#FFFFFF;}
</style>
<g>
	<path class="st0" d="M4.8,2.1c1.5,0,2.7,1.2,2.7,2.7S6.3,7.6,4.8,7.6S2,6.4,2,4.8C2.1,3.4,3.3,2.1,4.8,2.1 M4.8,0.1
		C2.2,0.1,0,2.2,0,4.8s2.1,4.8,4.8,4.8c2.6,0,4.7-2.1,4.7-4.8C9.6,2.3,7.4,0.1,4.8,0.1L4.8,0.1z"/>
	<path class="st1" d="M4.8,2.1c1.5,0,2.7,1.2,2.7,2.7S6.3,7.6,4.8,7.6S2,6.4,2,4.8C2.1,3.4,3.3,2.1,4.8,2.1"/>
</g>
</svg>
