<svg xmlns="http://www.w3.org/2000/svg" width="35.017" height="29.689" viewBox="0 0 35.017 29.689">
  <g id="Grupo_833" data-name="Grupo 833" transform="translate(0.033 0.001)">
    <path id="Trazado_332" data-name="Trazado 332" d="M39.377,7.565c-.349.554-.677,1.074-1.006,1.594-.814,1.293-1.628,2.579-2.442,3.872a2.3,2.3,0,0,1-.239.335.708.708,0,0,1-.876.116.7.7,0,0,1-.294-.835,2.122,2.122,0,0,1,.205-.39Q36.6,9.282,38.474,6.3c.068-.1.13-.212.219-.356H28.959V27.2c.684,0,1.368-.034,2.045.014a4.085,4.085,0,0,1,1.382.287,2.318,2.318,0,0,1,1.361,2.182H21.29a2.341,2.341,0,0,1,1.594-2.312,4.562,4.562,0,0,1,1.142-.164c.67-.027,1.341-.007,2.025-.007V5.93H16.317c.075.13.13.233.192.335q1.888,3,3.769,5.986c.356.561.328.978-.075,1.224s-.787.082-1.136-.472q-1.6-2.545-3.208-5.089c-.068-.1-.137-.205-.226-.349-.082.123-.15.219-.219.322q-1.6,2.545-3.208,5.089c-.021.027-.034.062-.055.089-.315.493-.732.65-1.1.4s-.424-.67-.109-1.17q1.888-3.006,3.79-6.013c.068-.1.13-.212.212-.349L14.7,5.889a1.1,1.1,0,0,1,.185-2.182c.116-.007.226-.007.342-.007q3.745,0,7.491.007a.62.62,0,0,0,.554-.246,3.128,3.128,0,0,1,1.443-1.053.453.453,0,0,0,.342-.4,2.5,2.5,0,0,1,4.9-.014.463.463,0,0,0,.335.41,3.191,3.191,0,0,1,1.464,1.074.53.53,0,0,0,.493.226c2.586-.007,5.178-.007,7.764,0a1.1,1.1,0,0,1,1.136.8,1.081,1.081,0,0,1-.431,1.2,3.627,3.627,0,0,1-.629.267c.041.075.1.185.157.28q1.888,3,3.769,5.986a2.678,2.678,0,0,1,.212.39.7.7,0,0,1-.267.841.722.722,0,0,1-.9-.123,2.883,2.883,0,0,1-.239-.328Q41.207,10.462,39.589,7.9A3.655,3.655,0,0,0,39.377,7.565Z" transform="translate(-10.027 0)" fill="#51bc93"/>
    <path id="Trazado_333" data-name="Trazado 333" d="M352.73,209.8h5.028c.54,0,.636.1.609.65a5.633,5.633,0,0,1-11.226.356c-.1-.978-.082-1.006.9-1.006Z" transform="translate(-323.387 -195.449)" fill="#51bc93"/>
    <path id="Trazado_334" data-name="Trazado 334" d="M5.647,209.759h4.959c.554,0,.67.123.629.664a5.638,5.638,0,0,1-11.2.6c-.027-.226-.055-.451-.068-.677-.021-.451.1-.575.547-.581.971-.007,1.936,0,2.907,0Z" transform="translate(0 -195.407)" fill="#51bc93"/>
  </g>
</svg>
